<?xml version="1.0" encoding="utf-8"?>
<!-- Generator: Adobe Illustrator 19.1.0, SVG Export Plug-In . SVG Version: 6.00 Build 0)  -->
<svg version="1.0" id="Ebene_1" xmlns="http://www.w3.org/2000/svg" xmlns:xlink="http://www.w3.org/1999/xlink" x="0px" y="0px"
	 viewBox="0 0 1313.6 942" enable-background="new 0 0 1313.6 942" xml:space="preserve">
<polygon fill="#B2B2B2" stroke="#1D1D1B" stroke-miterlimit="10" points="892.9,640.8 779.5,640.8 779.5,629.5 439.4,629.5 
	439.4,640.8 326,640.8 326,547.4 337.3,547.4 337.3,377.4 326,377.4 326,284 439.4,284 439.4,295.3 779.5,295.3 779.5,284 
	892.9,284 892.9,377.4 881.6,377.4 881.6,547.4 892.9,547.4 "/>
<polygon fill="#B2B2B2" stroke="#1D1D1B" stroke-miterlimit="10" points="107.7,284 164.4,284 164.4,295.3 249.4,295.3 249.4,284 
	306.1,284 306.1,376.8 317.5,376.8 317.5,548 306.1,548 306.1,640.8 249.4,640.8 249.4,629.5 164.4,629.5 164.4,640.8 107.7,640.8 
	107.7,548 96.4,548 96.4,376.8 107.7,376.8 "/>
<polygon fill="#B2B2B2" stroke="#1D1D1B" stroke-miterlimit="10" points="337.3,658.2 438.8,658.2 438.8,646.8 780.1,646.8 
	780.1,658.2 881.6,658.2 881.6,714.3 892.9,714.3 892.9,800.5 881.6,800.5 881.6,856.6 780.1,856.6 780.1,867.9 438.8,867.9 
	438.8,856.6 337.3,856.6 337.3,800.5 326,800.5 326,714.3 337.3,714.3 "/>
<g>
</g>
<g>
</g>
<g>
</g>
<g>
</g>
<g>
</g>
<g>
</g>
</svg>
